<mxfile host="app.diagrams.net" agent="Mozilla/5.0 (Windows NT 10.0; Win64; x64) AppleWebKit/537.36 (KHTML, like Gecko) Chrome/140.0.0.0 Safari/537.36" version="28.2.1">
  <diagram name="Page-1" id="b7Vlir38TuHqHQ_d5vGR">
    <mxGraphModel dx="1892" dy="561" grid="1" gridSize="10" guides="1" tooltips="1" connect="1" arrows="1" fold="1" page="1" pageScale="1" pageWidth="850" pageHeight="1100" math="0" shadow="0">
      <root>
        <mxCell id="0" />
        <mxCell id="1" parent="0" />
        <mxCell id="SmIt3_snjuERO_6utvrr-4" style="edgeStyle=orthogonalEdgeStyle;rounded=0;orthogonalLoop=1;jettySize=auto;html=1;entryX=0;entryY=0.5;entryDx=0;entryDy=0;" edge="1" parent="1" source="SmIt3_snjuERO_6utvrr-1" target="SmIt3_snjuERO_6utvrr-3">
          <mxGeometry relative="1" as="geometry" />
        </mxCell>
        <mxCell id="SmIt3_snjuERO_6utvrr-1" value="&lt;b&gt;index.html&lt;/b&gt;" style="whiteSpace=wrap;html=1;shape=mxgraph.basic.document;fillColor=#e1d5e7;strokeColor=#9673a6;" vertex="1" parent="1">
          <mxGeometry x="-10" y="120" width="80" height="120" as="geometry" />
        </mxCell>
        <mxCell id="SmIt3_snjuERO_6utvrr-2" value="" style="shape=image;html=1;verticalAlign=top;verticalLabelPosition=bottom;labelBackgroundColor=#ffffff;imageAspect=0;aspect=fixed;image=https://icons.diagrams.net/icon-cache1/Hydro_Pro-2053/HP-HDD-Dock-746.png" vertex="1" parent="1">
          <mxGeometry x="280" y="10" width="90" height="90" as="geometry" />
        </mxCell>
        <mxCell id="SmIt3_snjuERO_6utvrr-5" style="edgeStyle=orthogonalEdgeStyle;rounded=0;orthogonalLoop=1;jettySize=auto;html=1;" edge="1" parent="1" source="SmIt3_snjuERO_6utvrr-3" target="SmIt3_snjuERO_6utvrr-2">
          <mxGeometry relative="1" as="geometry" />
        </mxCell>
        <mxCell id="SmIt3_snjuERO_6utvrr-3" value="&lt;b&gt;inode&lt;/b&gt;" style="ellipse;whiteSpace=wrap;html=1;fillColor=#dae8fc;strokeColor=#6c8ebf;" vertex="1" parent="1">
          <mxGeometry x="140" y="50" width="80" height="40" as="geometry" />
        </mxCell>
        <mxCell id="SmIt3_snjuERO_6utvrr-6" value="&lt;b&gt;file type file/directory&lt;/b&gt;&lt;div&gt;&lt;b&gt;permission&lt;/b&gt;&lt;/div&gt;&lt;div&gt;&lt;b&gt;ownership&lt;/b&gt;&lt;/div&gt;&lt;div&gt;&lt;b&gt;size&lt;/b&gt;&lt;/div&gt;&lt;div&gt;&lt;b&gt;create/update timestamps\&lt;/b&gt;&lt;/div&gt;&lt;div&gt;&lt;b&gt;data pointer locations&lt;/b&gt;&lt;/div&gt;" style="text;html=1;align=center;verticalAlign=middle;resizable=0;points=[];autosize=1;strokeColor=none;fillColor=none;" vertex="1" parent="1">
          <mxGeometry x="110" y="100" width="170" height="100" as="geometry" />
        </mxCell>
        <mxCell id="SmIt3_snjuERO_6utvrr-7" value="&lt;b&gt;meta-data&lt;/b&gt;" style="rounded=0;whiteSpace=wrap;html=1;fillColor=#d5e8d4;strokeColor=#82b366;" vertex="1" parent="1">
          <mxGeometry x="305" y="140" width="120" height="20" as="geometry" />
        </mxCell>
        <mxCell id="SmIt3_snjuERO_6utvrr-14" style="edgeStyle=orthogonalEdgeStyle;rounded=0;orthogonalLoop=1;jettySize=auto;html=1;entryX=0;entryY=0.5;entryDx=0;entryDy=0;" edge="1" parent="1" source="SmIt3_snjuERO_6utvrr-8" target="SmIt3_snjuERO_6utvrr-13">
          <mxGeometry relative="1" as="geometry" />
        </mxCell>
        <mxCell id="SmIt3_snjuERO_6utvrr-8" value="&lt;b&gt;mobaxterm.exe&lt;/b&gt;" style="whiteSpace=wrap;html=1;shape=mxgraph.basic.document;fillColor=#e1d5e7;strokeColor=#9673a6;" vertex="1" parent="1">
          <mxGeometry x="340" y="240" width="100" height="120" as="geometry" />
        </mxCell>
        <mxCell id="SmIt3_snjuERO_6utvrr-12" style="edgeStyle=orthogonalEdgeStyle;rounded=0;orthogonalLoop=1;jettySize=auto;html=1;entryX=1;entryY=0.5;entryDx=0;entryDy=0;" edge="1" parent="1" source="SmIt3_snjuERO_6utvrr-9" target="SmIt3_snjuERO_6utvrr-11">
          <mxGeometry relative="1" as="geometry" />
        </mxCell>
        <mxCell id="SmIt3_snjuERO_6utvrr-9" value="&lt;b&gt;symlink&lt;/b&gt;" style="rounded=0;whiteSpace=wrap;html=1;fillColor=#f8cecc;strokeColor=#b85450;" vertex="1" parent="1">
          <mxGeometry x="160" y="420" width="120" height="60" as="geometry" />
        </mxCell>
        <mxCell id="SmIt3_snjuERO_6utvrr-10" style="edgeStyle=orthogonalEdgeStyle;rounded=0;orthogonalLoop=1;jettySize=auto;html=1;entryX=0;entryY=0.5;entryDx=0;entryDy=0;entryPerimeter=0;" edge="1" parent="1" source="SmIt3_snjuERO_6utvrr-9" target="SmIt3_snjuERO_6utvrr-8">
          <mxGeometry relative="1" as="geometry">
            <Array as="points">
              <mxPoint x="220" y="300" />
            </Array>
          </mxGeometry>
        </mxCell>
        <mxCell id="SmIt3_snjuERO_6utvrr-11" value="&lt;b&gt;inode&lt;/b&gt;" style="ellipse;whiteSpace=wrap;html=1;fillColor=#dae8fc;strokeColor=#6c8ebf;" vertex="1" parent="1">
          <mxGeometry y="430" width="80" height="40" as="geometry" />
        </mxCell>
        <mxCell id="SmIt3_snjuERO_6utvrr-13" value="&lt;b&gt;inode&lt;/b&gt;" style="ellipse;whiteSpace=wrap;html=1;fillColor=#d5e8d4;strokeColor=#82b366;" vertex="1" parent="1">
          <mxGeometry x="530" y="280" width="80" height="40" as="geometry" />
        </mxCell>
        <mxCell id="SmIt3_snjuERO_6utvrr-19" style="edgeStyle=orthogonalEdgeStyle;rounded=0;orthogonalLoop=1;jettySize=auto;html=1;entryX=0.5;entryY=1;entryDx=0;entryDy=0;" edge="1" parent="1" source="SmIt3_snjuERO_6utvrr-15" target="SmIt3_snjuERO_6utvrr-17">
          <mxGeometry relative="1" as="geometry" />
        </mxCell>
        <mxCell id="SmIt3_snjuERO_6utvrr-15" value="&lt;b&gt;index.html&lt;/b&gt;" style="whiteSpace=wrap;html=1;shape=mxgraph.basic.document;fillColor=#e1d5e7;strokeColor=#9673a6;" vertex="1" parent="1">
          <mxGeometry x="540" y="660" width="80" height="120" as="geometry" />
        </mxCell>
        <mxCell id="SmIt3_snjuERO_6utvrr-18" style="edgeStyle=orthogonalEdgeStyle;rounded=0;orthogonalLoop=1;jettySize=auto;html=1;" edge="1" parent="1" source="SmIt3_snjuERO_6utvrr-21" target="SmIt3_snjuERO_6utvrr-17">
          <mxGeometry relative="1" as="geometry" />
        </mxCell>
        <mxCell id="SmIt3_snjuERO_6utvrr-16" value="&lt;b&gt;index-1.html&lt;/b&gt;" style="rounded=0;whiteSpace=wrap;html=1;" vertex="1" parent="1">
          <mxGeometry x="185" y="690" width="125" height="90" as="geometry" />
        </mxCell>
        <mxCell id="SmIt3_snjuERO_6utvrr-17" value="" style="shape=image;html=1;verticalAlign=top;verticalLabelPosition=bottom;labelBackgroundColor=#ffffff;imageAspect=0;aspect=fixed;image=https://icons.diagrams.net/icon-cache1/Hydro_Pro-2053/HP-HDD-Dock-746.png" vertex="1" parent="1">
          <mxGeometry x="330" y="450" width="90" height="90" as="geometry" />
        </mxCell>
        <mxCell id="SmIt3_snjuERO_6utvrr-23" style="edgeStyle=orthogonalEdgeStyle;rounded=0;orthogonalLoop=1;jettySize=auto;html=1;entryX=0;entryY=0.5;entryDx=0;entryDy=0;" edge="1" parent="1" source="SmIt3_snjuERO_6utvrr-20" target="SmIt3_snjuERO_6utvrr-21">
          <mxGeometry relative="1" as="geometry">
            <Array as="points">
              <mxPoint x="60" y="620" />
            </Array>
          </mxGeometry>
        </mxCell>
        <mxCell id="SmIt3_snjuERO_6utvrr-20" value="&lt;b&gt;index-2.html&lt;/b&gt;" style="rounded=0;whiteSpace=wrap;html=1;" vertex="1" parent="1">
          <mxGeometry x="-10" y="690" width="125" height="90" as="geometry" />
        </mxCell>
        <mxCell id="SmIt3_snjuERO_6utvrr-22" value="" style="edgeStyle=orthogonalEdgeStyle;rounded=0;orthogonalLoop=1;jettySize=auto;html=1;" edge="1" parent="1" source="SmIt3_snjuERO_6utvrr-16" target="SmIt3_snjuERO_6utvrr-21">
          <mxGeometry relative="1" as="geometry">
            <mxPoint x="310" y="735" as="sourcePoint" />
            <mxPoint x="375" y="540" as="targetPoint" />
            <Array as="points">
              <mxPoint x="370" y="735" />
            </Array>
          </mxGeometry>
        </mxCell>
        <mxCell id="SmIt3_snjuERO_6utvrr-21" value="&lt;b&gt;inode&lt;/b&gt;" style="ellipse;whiteSpace=wrap;html=1;fillColor=#dae8fc;strokeColor=#6c8ebf;" vertex="1" parent="1">
          <mxGeometry x="330" y="600" width="80" height="40" as="geometry" />
        </mxCell>
      </root>
    </mxGraphModel>
  </diagram>
</mxfile>
